<?xml version="1.0" encoding="UTF-8" standalone="no"?>
<!DOCTYPE svg PUBLIC "-//W3C//DTD SVG 1.1//EN"
 "http://www.w3.org/Graphics/SVG/1.1/DTD/svg11.dtd">
<!-- Generated by graphviz version 2.40.1 (20161225.0304)
 -->
<!-- Title: dependencies Pages: 1 -->
<svg width="504pt" height="284pt"
 viewBox="0.00 0.00 504.00 284.00" xmlns="http://www.w3.org/2000/svg" xmlns:xlink="http://www.w3.org/1999/xlink">
<g id="graph0" class="graph" transform="scale(1 1) rotate(0) translate(4 280)">
<title>dependencies</title>
<polygon fill="#ffffff" stroke="transparent" points="-4,4 -4,-280 500,-280 500,4 -4,4"/>
<text text-anchor="start" x="227.0091" y="-42.4" font-family="sans-serif" font-weight="bold" font-size="14.00" fill="#000000">Legend</text>
<polygon fill="#ffffb3" stroke="transparent" points="14,-10 14,-30 34,-30 34,-10 14,-10"/>
<text text-anchor="start" x="37.629" y="-15.4" font-family="sans-serif" font-size="14.00" fill="#000000"> &#160;Declarations</text>
<polygon fill="#8dd3c7" stroke="transparent" points="127,-10 127,-30 147,-30 147,-10 127,-10"/>
<text text-anchor="start" x="150.7251" y="-15.4" font-family="sans-serif" font-size="14.00" fill="#000000"> &#160;Module</text>
<polygon fill="#80b1d3" stroke="transparent" points="213,-10 213,-30 233,-30 233,-10 213,-10"/>
<text text-anchor="start" x="236.7812" y="-15.4" font-family="sans-serif" font-size="14.00" fill="#000000"> &#160;Bootstrap</text>
<polygon fill="#fdb462" stroke="transparent" points="310,-10 310,-30 330,-30 330,-10 310,-10"/>
<text text-anchor="start" x="333.6732" y="-15.4" font-family="sans-serif" font-size="14.00" fill="#000000"> &#160;Providers</text>
<polygon fill="#fb8072" stroke="transparent" points="406,-10 406,-30 426,-30 426,-10 406,-10"/>
<text text-anchor="start" x="429.7258" y="-15.4" font-family="sans-serif" font-size="14.00" fill="#000000"> &#160;Exports</text>
<g id="clust1" class="cluster">
<title>cluster_ImageCompressModule</title>
<polygon fill="none" stroke="#000000" stroke-dasharray="1,5" points="20,-70 20,-268 476,-268 476,-70 20,-70"/>
</g>
<g id="clust3" class="cluster">
<title>cluster_ImageCompressModule_imports</title>
<polygon fill="none" stroke="#000000" points="200,-78 200,-130 328,-130 328,-78 200,-78"/>
</g>
<g id="clust4" class="cluster">
<title>cluster_ImageCompressModule_exports</title>
<polygon fill="none" stroke="#000000" points="28,-208 28,-260 468,-260 468,-208 28,-208"/>
</g>
<!-- CommonModule -->
<g id="node1" class="node">
<title>CommonModule</title>
<polygon fill="#8dd3c7" stroke="#000000" points="319.6681,-122 316.6681,-126 295.6681,-126 292.6681,-122 208.3319,-122 208.3319,-86 319.6681,-86 319.6681,-122"/>
<text text-anchor="middle" x="264" y="-99.8" font-family="Times,serif" font-size="14.00" fill="#000000">CommonModule</text>
</g>
<!-- ImageCompressModule -->
<g id="node2" class="node">
<title>ImageCompressModule</title>
<polygon fill="#8dd3c7" stroke="#000000" points="339.0226,-187 336.0226,-191 315.0226,-191 312.0226,-187 188.9774,-187 188.9774,-151 339.0226,-151 339.0226,-187"/>
<text text-anchor="middle" x="264" y="-164.8" font-family="Times,serif" font-size="14.00" fill="#000000">ImageCompressModule</text>
</g>
<!-- CommonModule&#45;&gt;ImageCompressModule -->
<g id="edge1" class="edge">
<title>CommonModule&#45;&gt;ImageCompressModule</title>
<path fill="none" stroke="#000000" d="M264,-122.1061C264,-122.1061 264,-140.991 264,-140.991"/>
<polygon fill="#000000" stroke="#000000" points="260.5001,-140.9909 264,-150.991 267.5001,-140.991 260.5001,-140.9909"/>
</g>
<!-- ResizeOptions  -->
<g id="node3" class="node">
<title>ResizeOptions </title>
<polygon fill="#fb8072" stroke="#000000" points="459.6481,-252 358.3519,-252 358.3519,-216 459.6481,-216 459.6481,-252"/>
<text text-anchor="middle" x="409" y="-229.8" font-family="Times,serif" font-size="14.00" fill="#000000">ResizeOptions </text>
</g>
<!-- ImageCompressModule&#45;&gt;ResizeOptions  -->
<g id="edge2" class="edge">
<title>ImageCompressModule&#45;&gt;ResizeOptions </title>
<path fill="none" stroke="#000000" stroke-dasharray="5,2" d="M339.0484,-169C374.4293,-169 409,-169 409,-169 409,-169 409,-205.8939 409,-205.8939"/>
<polygon fill="#000000" stroke="#000000" points="405.5001,-205.8938 409,-215.8939 412.5001,-205.8939 405.5001,-205.8938"/>
</g>
<!-- ImageCompressService  -->
<g id="node4" class="node">
<title>ImageCompressService </title>
<polygon fill="#fb8072" stroke="#000000" points="340.4503,-252 187.5497,-252 187.5497,-216 340.4503,-216 340.4503,-252"/>
<text text-anchor="middle" x="264" y="-229.8" font-family="Times,serif" font-size="14.00" fill="#000000">ImageCompressService </text>
</g>
<!-- ImageCompressModule&#45;&gt;ImageCompressService  -->
<g id="edge3" class="edge">
<title>ImageCompressModule&#45;&gt;ImageCompressService </title>
<path fill="none" stroke="#000000" stroke-dasharray="5,2" d="M264,-187.1061C264,-187.1061 264,-205.991 264,-205.991"/>
<polygon fill="#000000" stroke="#000000" points="260.5001,-205.9909 264,-215.991 267.5001,-205.991 260.5001,-205.9909"/>
</g>
<!-- ImageUtilityService  -->
<g id="node5" class="node">
<title>ImageUtilityService </title>
<polygon fill="#fb8072" stroke="#000000" points="169.5176,-252 36.4824,-252 36.4824,-216 169.5176,-216 169.5176,-252"/>
<text text-anchor="middle" x="103" y="-229.8" font-family="Times,serif" font-size="14.00" fill="#000000">ImageUtilityService </text>
</g>
<!-- ImageCompressModule&#45;&gt;ImageUtilityService  -->
<g id="edge4" class="edge">
<title>ImageCompressModule&#45;&gt;ImageUtilityService </title>
<path fill="none" stroke="#000000" stroke-dasharray="5,2" d="M188.6853,-169C146.7833,-169 103,-169 103,-169 103,-169 103,-205.8939 103,-205.8939"/>
<polygon fill="#000000" stroke="#000000" points="99.5001,-205.8938 103,-215.8939 106.5001,-205.8939 99.5001,-205.8938"/>
</g>
</g>
</svg>
