<?xml version="1.0" encoding="UTF-8" standalone="no"?>
<!DOCTYPE svg PUBLIC "-//W3C//DTD SVG 1.1//EN"
 "http://www.w3.org/Graphics/SVG/1.1/DTD/svg11.dtd">
<!-- Generated by graphviz version 2.40.1 (20161225.0304)
 -->
<!-- Title: dependencies Pages: 1 -->
<svg width="712pt" height="284pt"
 viewBox="0.00 0.00 712.00 284.00" xmlns="http://www.w3.org/2000/svg" xmlns:xlink="http://www.w3.org/1999/xlink">
<g id="graph0" class="graph" transform="scale(1 1) rotate(0) translate(4 280)">
<title>dependencies</title>
<polygon fill="#ffffff" stroke="transparent" points="-4,4 -4,-280 708,-280 708,4 -4,4"/>
<text text-anchor="start" x="331.0091" y="-42.4" font-family="sans-serif" font-weight="bold" font-size="14.00" fill="#000000">Legend</text>
<polygon fill="#ffffb3" stroke="transparent" points="118,-10 118,-30 138,-30 138,-10 118,-10"/>
<text text-anchor="start" x="141.629" y="-15.4" font-family="sans-serif" font-size="14.00" fill="#000000"> &#160;Declarations</text>
<polygon fill="#8dd3c7" stroke="transparent" points="231,-10 231,-30 251,-30 251,-10 231,-10"/>
<text text-anchor="start" x="254.7251" y="-15.4" font-family="sans-serif" font-size="14.00" fill="#000000"> &#160;Module</text>
<polygon fill="#80b1d3" stroke="transparent" points="317,-10 317,-30 337,-30 337,-10 317,-10"/>
<text text-anchor="start" x="340.7812" y="-15.4" font-family="sans-serif" font-size="14.00" fill="#000000"> &#160;Bootstrap</text>
<polygon fill="#fdb462" stroke="transparent" points="414,-10 414,-30 434,-30 434,-10 414,-10"/>
<text text-anchor="start" x="437.6732" y="-15.4" font-family="sans-serif" font-size="14.00" fill="#000000"> &#160;Providers</text>
<polygon fill="#fb8072" stroke="transparent" points="510,-10 510,-30 530,-30 530,-10 510,-10"/>
<text text-anchor="start" x="533.7258" y="-15.4" font-family="sans-serif" font-size="14.00" fill="#000000"> &#160;Exports</text>
<g id="clust1" class="cluster">
<title>cluster_ImageCompressModule</title>
<polygon fill="none" stroke="#000000" stroke-dasharray="1,5" points="8,-70 8,-268 696,-268 696,-70 8,-70"/>
</g>
<g id="clust2" class="cluster">
<title>cluster_ImageCompressModule_declarations</title>
<polygon fill="none" stroke="#000000" points="152,-78 152,-130 688,-130 688,-78 152,-78"/>
</g>
<g id="clust7" class="cluster">
<title>cluster_ImageCompressModule_imports</title>
<polygon fill="none" stroke="#000000" points="16,-78 16,-130 144,-130 144,-78 16,-78"/>
</g>
<g id="clust8" class="cluster">
<title>cluster_ImageCompressModule_exports</title>
<polygon fill="none" stroke="#000000" points="146,-208 146,-260 586,-260 586,-208 146,-208"/>
</g>
<!-- ResizeOptions -->
<g id="node1" class="node">
<title>ResizeOptions</title>
<polygon fill="#ffffb3" stroke="#000000" points="679.6486,-122 582.3514,-122 582.3514,-86 679.6486,-86 679.6486,-122"/>
<text text-anchor="middle" x="631" y="-99.8" font-family="Times,serif" font-size="14.00" fill="#000000">ResizeOptions</text>
</g>
<!-- ImageCompressModule -->
<g id="node5" class="node">
<title>ImageCompressModule</title>
<polygon fill="#8dd3c7" stroke="#000000" points="457.0226,-187 454.0226,-191 433.0226,-191 430.0226,-187 306.9774,-187 306.9774,-151 457.0226,-151 457.0226,-187"/>
<text text-anchor="middle" x="382" y="-164.8" font-family="Times,serif" font-size="14.00" fill="#000000">ImageCompressModule</text>
</g>
<!-- ResizeOptions&#45;&gt;ImageCompressModule -->
<g id="edge1" class="edge">
<title>ResizeOptions&#45;&gt;ImageCompressModule</title>
<path fill="none" stroke="#000000" d="M631,-122.1061C631,-141.3391 631,-169 631,-169 631,-169 467.0459,-169 467.0459,-169"/>
<polygon fill="#000000" stroke="#000000" points="467.0459,-165.5001 457.0459,-169 467.0458,-172.5001 467.0459,-165.5001"/>
</g>
<!-- SourceImage -->
<g id="node2" class="node">
<title>SourceImage</title>
<polygon fill="#ffffb3" stroke="#000000" points="563.8529,-122 474.1471,-122 474.1471,-86 563.8529,-86 563.8529,-122"/>
<text text-anchor="middle" x="519" y="-99.8" font-family="Times,serif" font-size="14.00" fill="#000000">SourceImage</text>
</g>
<!-- SourceImage&#45;&gt;ImageCompressModule -->
<g id="edge2" class="edge">
<title>SourceImage&#45;&gt;ImageCompressModule</title>
<path fill="none" stroke="#000000" d="M534.7596,-122.027C534.7596,-138.3976 534.7596,-160 534.7596,-160 534.7596,-160 467.0372,-160 467.0372,-160"/>
<polygon fill="#000000" stroke="#000000" points="467.0373,-156.5001 457.0372,-160 467.0372,-163.5001 467.0373,-156.5001"/>
</g>
<!-- ImageCompressService -->
<g id="node3" class="node">
<title>ImageCompressService</title>
<polygon fill="#ffffb3" stroke="#000000" points="456.4496,-122 307.5504,-122 307.5504,-86 456.4496,-86 456.4496,-122"/>
<text text-anchor="middle" x="382" y="-99.8" font-family="Times,serif" font-size="14.00" fill="#000000">ImageCompressService</text>
</g>
<!-- ImageCompressService&#45;&gt;ImageCompressModule -->
<g id="edge3" class="edge">
<title>ImageCompressService&#45;&gt;ImageCompressModule</title>
<path fill="none" stroke="#000000" d="M382,-122.1061C382,-122.1061 382,-140.991 382,-140.991"/>
<polygon fill="#000000" stroke="#000000" points="378.5001,-140.9909 382,-150.991 385.5001,-140.991 378.5001,-140.9909"/>
</g>
<!-- ImageUtilityService -->
<g id="node4" class="node">
<title>ImageUtilityService</title>
<polygon fill="#ffffb3" stroke="#000000" points="289.5185,-122 160.4815,-122 160.4815,-86 289.5185,-86 289.5185,-122"/>
<text text-anchor="middle" x="225" y="-99.8" font-family="Times,serif" font-size="14.00" fill="#000000">ImageUtilityService</text>
</g>
<!-- ImageUtilityService&#45;&gt;ImageCompressModule -->
<g id="edge4" class="edge">
<title>ImageUtilityService&#45;&gt;ImageCompressModule</title>
<path fill="none" stroke="#000000" d="M245.0863,-122.027C245.0863,-138.3976 245.0863,-160 245.0863,-160 245.0863,-160 296.7342,-160 296.7342,-160"/>
<polygon fill="#000000" stroke="#000000" points="296.7342,-163.5001 306.7342,-160 296.7342,-156.5001 296.7342,-163.5001"/>
</g>
<!-- ResizeOptions  -->
<g id="node7" class="node">
<title>ResizeOptions </title>
<polygon fill="#fb8072" stroke="#000000" points="577.6481,-252 476.3519,-252 476.3519,-216 577.6481,-216 577.6481,-252"/>
<text text-anchor="middle" x="527" y="-229.8" font-family="Times,serif" font-size="14.00" fill="#000000">ResizeOptions </text>
</g>
<!-- ImageCompressModule&#45;&gt;ResizeOptions  -->
<g id="edge6" class="edge">
<title>ImageCompressModule&#45;&gt;ResizeOptions </title>
<path fill="none" stroke="#000000" stroke-dasharray="5,2" d="M457.1004,-178C482.9807,-178 505.5928,-178 505.5928,-178 505.5928,-178 505.5928,-205.973 505.5928,-205.973"/>
<polygon fill="#000000" stroke="#000000" points="502.0929,-205.973 505.5928,-215.973 509.0929,-205.973 502.0929,-205.973"/>
</g>
<!-- ImageCompressService  -->
<g id="node8" class="node">
<title>ImageCompressService </title>
<polygon fill="#fb8072" stroke="#000000" points="458.4503,-252 305.5497,-252 305.5497,-216 458.4503,-216 458.4503,-252"/>
<text text-anchor="middle" x="382" y="-229.8" font-family="Times,serif" font-size="14.00" fill="#000000">ImageCompressService </text>
</g>
<!-- ImageCompressModule&#45;&gt;ImageCompressService  -->
<g id="edge7" class="edge">
<title>ImageCompressModule&#45;&gt;ImageCompressService </title>
<path fill="none" stroke="#000000" stroke-dasharray="5,2" d="M382,-187.1061C382,-187.1061 382,-205.991 382,-205.991"/>
<polygon fill="#000000" stroke="#000000" points="378.5001,-205.9909 382,-215.991 385.5001,-205.991 378.5001,-205.9909"/>
</g>
<!-- ImageUtilityService  -->
<g id="node9" class="node">
<title>ImageUtilityService </title>
<polygon fill="#fb8072" stroke="#000000" points="287.5176,-252 154.4824,-252 154.4824,-216 287.5176,-216 287.5176,-252"/>
<text text-anchor="middle" x="221" y="-229.8" font-family="Times,serif" font-size="14.00" fill="#000000">ImageUtilityService </text>
</g>
<!-- ImageCompressModule&#45;&gt;ImageUtilityService  -->
<g id="edge8" class="edge">
<title>ImageCompressModule&#45;&gt;ImageUtilityService </title>
<path fill="none" stroke="#000000" stroke-dasharray="5,2" d="M306.7248,-178C257.6475,-178 202.6637,-178 202.6637,-178 202.6637,-178 202.6637,-205.973 202.6637,-205.973"/>
<polygon fill="#000000" stroke="#000000" points="199.1638,-205.973 202.6637,-215.973 206.1638,-205.973 199.1638,-205.973"/>
</g>
<!-- CommonModule -->
<g id="node6" class="node">
<title>CommonModule</title>
<polygon fill="#8dd3c7" stroke="#000000" points="135.6681,-122 132.6681,-126 111.6681,-126 108.6681,-122 24.3319,-122 24.3319,-86 135.6681,-86 135.6681,-122"/>
<text text-anchor="middle" x="80" y="-99.8" font-family="Times,serif" font-size="14.00" fill="#000000">CommonModule</text>
</g>
<!-- CommonModule&#45;&gt;ImageCompressModule -->
<g id="edge5" class="edge">
<title>CommonModule&#45;&gt;ImageCompressModule</title>
<path fill="none" stroke="#000000" d="M80,-122.1061C80,-141.3391 80,-169 80,-169 80,-169 296.9603,-169 296.9603,-169"/>
<polygon fill="#000000" stroke="#000000" points="296.9603,-172.5001 306.9603,-169 296.9603,-165.5001 296.9603,-172.5001"/>
</g>
</g>
</svg>
